<svg xmlns="http://www.w3.org/2000/svg" viewBox="0 0 700 320"><defs><linearGradient id="cr-primaryGrad" x1="0%" x2="100%" y1="0%" y2="100%"><stop style="stop-color:#6366f1" offset="0%"/><stop style="stop-color:#8b5cf6" offset="100%"/></linearGradient><linearGradient id="cr-greenGrad" x1="0%" x2="100%" y1="0%" y2="100%"><stop style="stop-color:#10b981" offset="0%"/><stop style="stop-color:#34d399" offset="100%"/></linearGradient><linearGradient id="cr-blueGrad" x1="0%" x2="100%" y1="0%" y2="100%"><stop style="stop-color:#0ea5e9" offset="0%"/><stop style="stop-color:#38bdf8" offset="100%"/></linearGradient><linearGradient id="cr-amberGrad" x1="0%" x2="100%" y1="0%" y2="100%"><stop style="stop-color:#f59e0b" offset="0%"/><stop style="stop-color:#fbbf24" offset="100%"/></linearGradient><linearGradient id="cr-bgGrad" x1="0%" x2="100%" y1="0%" y2="100%"><stop style="stop-color:#0f172a" offset="0%"/><stop style="stop-color:#1e293b" offset="100%"/></linearGradient><filter id="cr-softGlow"><feGaussianBlur result="blur" stdDeviation="8"/><feMerge><feMergeNode in="blur"/><feMergeNode in="SourceGraphic"/></feMerge></filter><pattern id="cr-grid" width="40" height="40" patternUnits="userSpaceOnUse"><path fill="none" stroke="#334155" stroke-width=".5" d="M 40 0 L 0 0 0 40" opacity=".3"/></pattern><marker id="cr-arrowGreen" markerHeight="8" markerWidth="8" orient="auto" refX="6" refY="4"><path fill="#34d399" d="M 0 0 L 8 4 L 0 8 Z"/></marker><marker id="cr-arrowAmber" markerHeight="8" markerWidth="8" orient="auto" refX="6" refY="4"><path fill="#fbbf24" d="M 0 0 L 8 4 L 0 8 Z"/></marker><marker id="cr-arrowPurple" markerHeight="8" markerWidth="8" orient="auto" refX="6" refY="4"><path fill="#a78bfa" d="M 0 0 L 8 4 L 0 8 Z"/></marker></defs><style>@keyframes cr-pulse{0%{opacity:1}50%{opacity:.6}}.cr-feature,.cr-label{font-family:-apple-system,BlinkMacSystemFont,&apos;Segoe UI&apos;,Roboto,sans-serif}.cr-label{font-weight:600}.cr-feature{font-size:10px;fill:#94a3b8}.cr-pulse{animation:cr-pulse 2s ease-in-out infinite}</style><rect width="700" height="320" fill="url(#cr-bgGrad)" rx="16"/><rect width="700" height="320" fill="url(#cr-grid)" rx="16"/><ellipse cx="350" cy="55" fill="#0ea5e9" filter="url(#cr-softGlow)" opacity=".08" rx="60" ry="35"/><ellipse cx="350" cy="140" fill="#6366f1" filter="url(#cr-softGlow)" opacity=".06" rx="70" ry="40"/><text x="350" y="28" fill="#e2e8f0" class="cr-label" font-size="14" text-anchor="middle">Cache-Aware Routing Selection Flow</text><rect width="120" height="34" x="290" y="42" fill="#1e293b" stroke="#0ea5e9" stroke-width="2" rx="10"/><rect width="120" height="18" x="290" y="42" fill="url(#cr-blueGrad)" rx="10"/><rect width="120" height="6" x="290" y="54" fill="url(#cr-blueGrad)"/><text x="350" y="57" fill="#fff" class="cr-label" font-size="9" text-anchor="middle">Request Arrives</text><text x="350" y="72" fill="#38bdf8" class="cr-feature" text-anchor="middle">Token IDs extracted</text><line x1="350" x2="350" y1="76" y2="98" stroke="#6366f1" stroke-width="2" marker-end="url(#cr-arrowPurple)"/><polygon fill="#1e293b" stroke="#6366f1" stroke-width="2" points="350 103 430 140 350 177 270 140"/><text x="350" y="136" fill="#a78bfa" class="cr-label" font-size="10" text-anchor="middle">System</text><text x="350" y="150" fill="#a78bfa" class="cr-label" font-size="10" text-anchor="middle">Balanced?</text><line x1="270" x2="180" y1="140" y2="140" stroke="#f59e0b" stroke-width="2" marker-end="url(#cr-arrowAmber)"/><text x="225" y="132" fill="#fbbf24" class="cr-label" font-size="9" text-anchor="middle">No</text><rect width="135" height="45" x="40" y="118" fill="#1e293b" stroke="#f59e0b" stroke-width="2" rx="8"/><rect width="135" height="20" x="40" y="118" fill="url(#cr-amberGrad)" rx="8"/><rect width="135" height="6" x="40" y="132" fill="url(#cr-amberGrad)"/><text x="107" y="134" fill="#1e293b" class="cr-label" font-size="9" text-anchor="middle">Least-Loaded</text><text x="107" y="156" fill="#fbbf24" class="cr-feature" text-anchor="middle">Load balancing fallback</text><line x1="430" x2="495" y1="140" y2="140" stroke="#10b981" stroke-width="2" marker-end="url(#cr-arrowGreen)"/><text x="460" y="132" fill="#34d399" class="cr-label" font-size="9" text-anchor="middle">Yes</text><rect width="150" height="45" x="500" y="118" fill="#1e293b" stroke="#10b981" stroke-width="1.5" rx="8"/><rect width="150" height="20" x="500" y="118" fill="url(#cr-greenGrad)" rx="8"/><rect width="150" height="6" x="500" y="132" fill="url(#cr-greenGrad)"/><text x="575" y="134" fill="#fff" class="cr-label" font-size="9" text-anchor="middle">Search Radix Tree</text><text x="575" y="156" fill="#34d399" class="cr-feature" text-anchor="middle">Prefix match lookup</text><line x1="575" x2="575" y1="163" y2="185" stroke="#6366f1" stroke-width="2" marker-end="url(#cr-arrowPurple)"/><polygon fill="#1e293b" stroke="#6366f1" stroke-width="2" points="575 190 655 222 575 254 495 222"/><text x="575" y="216" fill="#a78bfa" class="cr-label" font-size="9" text-anchor="middle">Match ≥</text><text x="575" y="230" fill="#a78bfa" class="cr-label" font-size="9" text-anchor="middle">Threshold?</text><line x1="655" x2="700" y1="222" y2="222" stroke="#10b981" stroke-width="0"/><line x1="575" x2="575" y1="254" y2="275" stroke="#10b981" stroke-width="2" marker-end="url(#cr-arrowGreen)"/><text x="590" y="268" fill="#34d399" class="cr-label" font-size="9">Yes</text><rect width="160" height="30" x="495" y="280" fill="#1e293b" stroke="#10b981" stroke-width="2" class="cr-pulse" rx="8"/><text x="575" y="300" fill="#34d399" class="cr-label" font-size="10" text-anchor="middle">Route to Matched Worker</text><line x1="495" x2="350" y1="222" y2="222" stroke="#f59e0b" stroke-width="2"/><line x1="350" x2="350" y1="222" y2="280" stroke="#f59e0b" stroke-width="2" marker-end="url(#cr-arrowAmber)"/><text x="420" y="214" fill="#fbbf24" class="cr-label" font-size="9" text-anchor="middle">No</text><rect width="200" height="30" x="250" y="280" fill="#1e293b" stroke="#f59e0b" stroke-width="2" class="cr-pulse" rx="8"/><text x="350" y="300" fill="#fbbf24" class="cr-label" font-size="10" text-anchor="middle">Route to Most Cache Capacity</text></svg>