<svg xmlns="http://www.w3.org/2000/svg" viewBox="0 0 650 380"><defs><linearGradient id="hc-primaryGrad" x1="0%" x2="100%" y1="0%" y2="100%"><stop style="stop-color:#6366f1" offset="0%"/><stop style="stop-color:#8b5cf6" offset="100%"/></linearGradient><linearGradient id="hc-greenGrad" x1="0%" x2="100%" y1="0%" y2="100%"><stop style="stop-color:#10b981" offset="0%"/><stop style="stop-color:#34d399" offset="100%"/></linearGradient><linearGradient id="hc-redGrad" x1="0%" x2="100%" y1="0%" y2="100%"><stop style="stop-color:#ef4444" offset="0%"/><stop style="stop-color:#f87171" offset="100%"/></linearGradient><linearGradient id="hc-bgGrad" x1="0%" x2="100%" y1="0%" y2="100%"><stop style="stop-color:#0f172a" offset="0%"/><stop style="stop-color:#1e293b" offset="100%"/></linearGradient><filter id="hc-softGlow"><feGaussianBlur result="blur" stdDeviation="6"/><feMerge><feMergeNode in="blur"/><feMergeNode in="SourceGraphic"/></feMerge></filter><pattern id="hc-grid" width="40" height="40" patternUnits="userSpaceOnUse"><path fill="none" stroke="#334155" stroke-width=".5" d="M 40 0 L 0 0 0 40" opacity=".3"/></pattern></defs><style>@keyframes hc-pulse{0%{opacity:1}50%{opacity:.5}}.hc-label{font-family:-apple-system,BlinkMacSystemFont,&apos;Segoe UI&apos;,Roboto,sans-serif;font-weight:600}.hc-sublabel{font-weight:500}.hc-msg,.hc-note,.hc-sublabel{font-family:-apple-system,BlinkMacSystemFont,&apos;Segoe UI&apos;,Roboto,sans-serif}.hc-msg{font-size:9px;font-weight:500}.hc-note{font-size:8px}</style><rect width="650" height="380" fill="url(#hc-bgGrad)" rx="16"/><rect width="650" height="380" fill="url(#hc-grid)" rx="16"/><text x="325" y="28" fill="#e2e8f0" class="hc-label" font-size="14" text-anchor="middle">Health Check Workflow</text><rect width="80" height="28" x="120" y="42" fill="url(#hc-primaryGrad)" rx="8"/><text x="160" y="61" fill="#fff" class="hc-label" font-size="10" text-anchor="middle">SMG</text><rect width="90" height="28" x="330" y="42" fill="url(#hc-greenGrad)" rx="8"/><text x="375" y="61" fill="#fff" class="hc-label" font-size="10" text-anchor="middle">Worker 1</text><rect width="90" height="28" x="510" y="42" fill="url(#hc-redGrad)" rx="8"/><text x="555" y="61" fill="#fff" class="hc-label" font-size="10" text-anchor="middle">Worker 2</text><line x1="160" x2="160" y1="70" y2="350" stroke="#8b5cf6" stroke-dasharray="4 4" stroke-width="1.5" opacity=".4"/><line x1="375" x2="375" y1="70" y2="350" stroke="#34d399" stroke-dasharray="4 4" stroke-width="1.5" opacity=".4"/><line x1="555" x2="555" y1="70" y2="350" stroke="#f87171" stroke-dasharray="4 4" stroke-width="1.5" opacity=".4"/><rect width="110" height="18" x="70" y="82" fill="#6366f1" stroke="#6366f1" stroke-width="1" opacity=".15" rx="4"/><text x="125" y="94" fill="#a78bfa" class="hc-note" text-anchor="middle">Health check interval</text><line x1="160" x2="370" y1="110" y2="110" stroke="#34d399" stroke-width="1.5"/><polygon fill="#34d399" points="367 106 375 110 367 114"/><text x="265" y="104" fill="#34d399" class="hc-msg" text-anchor="middle">GET /health</text><line x1="375" x2="165" y1="128" y2="128" stroke="#34d399" stroke-dasharray="5 3" stroke-width="1.5"/><polygon fill="#34d399" points="168 124 160 128 168 132"/><text x="265" y="124" fill="#34d399" class="hc-msg" text-anchor="middle">200 OK</text><rect width="55" height="16" x="350" y="135" fill="#10b981" stroke="#10b981" stroke-width="1" opacity=".2" rx="4"/><text x="377" y="147" fill="#34d399" class="hc-note" text-anchor="middle">Healthy</text><line x1="160" x2="550" y1="165" y2="165" stroke="#f87171" stroke-width="1.5"/><polygon fill="#f87171" points="547 161 555 165 547 169"/><text x="355" y="159" fill="#f87171" class="hc-msg" text-anchor="middle">GET /health</text><line x1="548" x2="562" y1="178" y2="192" stroke="#ef4444" stroke-width="2.5"/><line x1="562" x2="548" y1="178" y2="192" stroke="#ef4444" stroke-width="2.5"/><text x="590" y="189" fill="#f87171" class="hc-msg">Timeout</text><rect width="62" height="16" x="525" y="197" fill="#ef4444" stroke="#ef4444" stroke-width="1" opacity=".2" rx="4"/><text x="556" y="209" fill="#f87171" class="hc-note" text-anchor="middle">Failure 1</text><rect width="110" height="18" x="70" y="220" fill="#6366f1" stroke="#6366f1" stroke-width="1" opacity=".15" rx="4"/><text x="125" y="232" fill="#a78bfa" class="hc-note" text-anchor="middle">Next interval</text><line x1="160" x2="550" y1="248" y2="248" stroke="#f87171" stroke-width="1.5"/><polygon fill="#f87171" points="547 244 555 248 547 252"/><text x="355" y="242" fill="#f87171" class="hc-msg" text-anchor="middle">GET /health</text><line x1="548" x2="562" y1="258" y2="272" stroke="#ef4444" stroke-width="2.5"/><line x1="562" x2="548" y1="258" y2="272" stroke="#ef4444" stroke-width="2.5"/><rect width="118" height="18" x="493" y="278" fill="#ef4444" stroke="#ef4444" stroke-width="1.5" opacity=".3" rx="4"/><text x="552" y="290" fill="#f87171" class="hc-note" font-weight="600" text-anchor="middle">Failure 3 — UNHEALTHY</text><rect width="170" height="18" x="60" y="305" fill="#ef4444" stroke="#ef4444" stroke-width="1" opacity=".15" rx="4"/><text x="145" y="317" fill="#f87171" class="hc-note" text-anchor="middle">Worker 2 removed from pool</text><line x1="545" x2="565" y1="310" y2="330" stroke="#ef4444" stroke-width="3"/><line x1="565" x2="545" y1="310" y2="330" stroke="#ef4444" stroke-width="3"/><text x="325" y="368" fill="#64748b" class="hc-sublabel" font-size="11" text-anchor="middle">Periodic Monitoring • Consecutive Failure Detection • Automatic Pool Management</text></svg>