<svg xmlns="http://www.w3.org/2000/svg" viewBox="0 0 750 440"><defs><linearGradient id="pdv-blueGrad" x1="0%" x2="100%" y1="0%" y2="100%"><stop style="stop-color:#0ea5e9" offset="0%"/><stop style="stop-color:#38bdf8" offset="100%"/></linearGradient><linearGradient id="pdv-primaryGrad" x1="0%" x2="100%" y1="0%" y2="100%"><stop style="stop-color:#6366f1" offset="0%"/><stop style="stop-color:#8b5cf6" offset="100%"/></linearGradient><linearGradient id="pdv-greenGrad" x1="0%" x2="100%" y1="0%" y2="100%"><stop style="stop-color:#10b981" offset="0%"/><stop style="stop-color:#34d399" offset="100%"/></linearGradient><linearGradient id="pdv-amberGrad" x1="0%" x2="100%" y1="0%" y2="100%"><stop style="stop-color:#f59e0b" offset="0%"/><stop style="stop-color:#fbbf24" offset="100%"/></linearGradient><linearGradient id="pdv-bgGrad" x1="0%" x2="100%" y1="0%" y2="100%"><stop style="stop-color:#0f172a" offset="0%"/><stop style="stop-color:#1e293b" offset="100%"/></linearGradient><filter id="pdv-softGlow"><feGaussianBlur result="blur" stdDeviation="6"/><feMerge><feMergeNode in="blur"/><feMergeNode in="SourceGraphic"/></feMerge></filter><pattern id="pdv-grid" width="40" height="40" patternUnits="userSpaceOnUse"><path fill="none" stroke="#334155" stroke-width=".5" d="M 40 0 L 0 0 0 40" opacity=".3"/></pattern></defs><style>@keyframes pdv-pulse{0%{opacity:1}50%{opacity:.5}}.pdv-label{font-family:-apple-system,BlinkMacSystemFont,&apos;Segoe UI&apos;,Roboto,sans-serif;font-weight:600}.pdv-sublabel{font-weight:500}.pdv-msg,.pdv-note,.pdv-sublabel{font-family:-apple-system,BlinkMacSystemFont,&apos;Segoe UI&apos;,Roboto,sans-serif}.pdv-msg{font-size:9px;font-weight:500}.pdv-note{font-size:8px;fill:#94a3b8}.pdv-pulse{animation:pdv-pulse 1.5s ease-in-out infinite}</style><rect width="750" height="440" fill="url(#pdv-bgGrad)" rx="16"/><rect width="750" height="440" fill="url(#pdv-grid)" rx="16"/><text x="375" y="28" fill="#e2e8f0" class="pdv-label" font-size="14" text-anchor="middle">vLLM PD — Sequential Dispatch</text><rect width="80" height="28" x="60" y="42" fill="url(#pdv-blueGrad)" rx="8"/><text x="100" y="61" fill="#fff" class="pdv-label" font-size="10" text-anchor="middle">Client</text><rect width="80" height="28" x="240" y="42" fill="url(#pdv-primaryGrad)" rx="8"/><text x="280" y="61" fill="#fff" class="pdv-label" font-size="10" text-anchor="middle">SMG</text><rect width="110" height="28" x="430" y="42" fill="url(#pdv-greenGrad)" rx="8"/><text x="485" y="61" fill="#fff" class="pdv-label" font-size="10" text-anchor="middle">Prefill Worker</text><rect width="110" height="28" x="610" y="42" fill="url(#pdv-amberGrad)" rx="8"/><text x="665" y="61" fill="#1e293b" class="pdv-label" font-size="10" text-anchor="middle">Decode Worker</text><line x1="100" x2="100" y1="70" y2="415" stroke="#38bdf8" stroke-dasharray="4 4" stroke-width="1.5" opacity=".4"/><line x1="280" x2="280" y1="70" y2="415" stroke="#8b5cf6" stroke-dasharray="4 4" stroke-width="1.5" opacity=".4"/><line x1="485" x2="485" y1="70" y2="415" stroke="#34d399" stroke-dasharray="4 4" stroke-width="1.5" opacity=".4"/><line x1="665" x2="665" y1="70" y2="415" stroke="#fbbf24" stroke-dasharray="4 4" stroke-width="1.5" opacity=".4"/><line x1="100" x2="275" y1="95" y2="95" stroke="#38bdf8" stroke-width="1.5"/><polygon fill="#38bdf8" points="272 91 280 95 272 99"/><text x="188" y="89" fill="#38bdf8" class="pdv-msg" text-anchor="middle">Chat completion request</text><rect width="90" height="20" x="283" y="108" fill="#1e293b" stroke="#8b5cf6" stroke-width="1" rx="4"/><text x="328" y="122" fill="#a78bfa" class="pdv-note" text-anchor="middle">Find P/D pair</text><line x1="280" x2="480" y1="142" y2="142" stroke="#34d399" stroke-width="1.5"/><polygon fill="#34d399" points="477 138 485 142 477 146"/><text x="380" y="136" fill="#34d399" class="pdv-msg" text-anchor="middle">Forward request (max_tokens=1)</text><rect width="130" height="20" x="488" y="155" fill="#1e293b" stroke="#34d399" stroke-width="1" rx="4"/><text x="553" y="169" fill="#34d399" class="pdv-note" text-anchor="middle">Process prompt, compute KV</text><line x1="485" x2="285" y1="188" y2="188" stroke="#34d399" stroke-dasharray="5 3" stroke-width="1.5"/><polygon fill="#34d399" points="288 184 280 188 288 192"/><text x="385" y="184" fill="#34d399" class="pdv-msg" text-anchor="middle">Prefill complete (discarded)</text><line x1="280" x2="660" y1="212" y2="212" stroke="#fbbf24" stroke-width="1.5"/><polygon fill="#fbbf24" points="657 208 665 212 657 216"/><text x="470" y="206" fill="#fbbf24" class="pdv-msg" text-anchor="middle">Forward original request</text><rect width="255" height="22" x="420" y="225" fill="#14b8a6" stroke="#14b8a6" stroke-width="1" opacity=".15" rx="4"/><text x="547" y="240" fill="#2dd4bf" class="pdv-note" font-weight="500" text-anchor="middle">NIXL / Mooncake auto-discovers KV cache</text><rect width="480" height="90" x="230" y="258" fill="none" stroke="#f59e0b" stroke-dasharray="6 3" stroke-width="1.5" rx="6"/><rect width="115" height="16" x="234" y="258" fill="#f59e0b" opacity=".2" rx="4"/><text x="291" y="270" fill="#fbbf24" class="pdv-note" font-weight="600" text-anchor="middle">loop Token Generation</text><rect width="65" height="16" x="668" y="280" fill="#1e293b" stroke="#fbbf24" stroke-width="1" class="pdv-pulse" rx="4"/><text x="700" y="292" fill="#fbbf24" class="pdv-note" text-anchor="middle">Generate</text><line x1="665" x2="285" y1="305" y2="305" stroke="#fbbf24" stroke-dasharray="5 3" stroke-width="1.5"/><polygon fill="#fbbf24" points="288 301 280 305 288 309"/><text x="475" y="301" fill="#fbbf24" class="pdv-msg" text-anchor="middle">Stream token</text><line x1="280" x2="105" y1="330" y2="330" stroke="#a78bfa" stroke-dasharray="5 3" stroke-width="1.5"/><polygon fill="#a78bfa" points="108 326 100 330 108 334"/><text x="192" y="326" fill="#a78bfa" class="pdv-msg" text-anchor="middle">Stream token</text><line x1="665" x2="285" y1="365" y2="365" stroke="#fbbf24" stroke-dasharray="5 3" stroke-width="1.5"/><polygon fill="#fbbf24" points="288 361 280 365 288 369"/><text x="475" y="361" fill="#fbbf24" class="pdv-msg" text-anchor="middle">Generation complete</text><line x1="280" x2="105" y1="385" y2="385" stroke="#a78bfa" stroke-dasharray="5 3" stroke-width="1.5"/><polygon fill="#a78bfa" points="108 381 100 385 108 389"/><text x="192" y="381" fill="#a78bfa" class="pdv-msg" text-anchor="middle">Final response</text><text x="375" y="430" fill="#64748b" class="pdv-sublabel" font-size="11" text-anchor="middle">Sequential Dispatch • NIXL/Mooncake KV Transfer • Transparent Cache Migration</text></svg>